<?xml version="1.0" standalone="no"?><!DOCTYPE svg PUBLIC "-//W3C//DTD SVG 1.1//EN" "http://www.w3.org/Graphics/SVG/1.1/DTD/svg11.dtd"><svg class="icon" width="200px" height="200.00px" viewBox="0 0 1024 1024" version="1.1" xmlns="http://www.w3.org/2000/svg"><path d="M622.832941 350.027294a279.973647 279.973647 0 0 1-216.545882-216.545882 28.852706 28.852706 0 0 0-56.380235 0A279.973647 279.973647 0 0 1 133.300706 349.967059a28.852706 28.852706 0 0 0 0 56.44047 279.973647 279.973647 0 0 1 216.545882 216.545883 28.852706 28.852706 0 0 0 56.380236 0A279.973647 279.973647 0 0 1 622.832941 406.467765a28.852706 28.852706 0 0 0 0-56.440471z m-47.947294 431.465412a96.075294 96.075294 0 0 1-74.270118-74.270118 21.022118 21.022118 0 0 0-41.140705 0 96.015059 96.015059 0 0 1-74.270118 74.270118 20.961882 20.961882 0 0 0 0 41.140706c37.345882 7.830588 66.439529 36.984471 74.270118 74.270117a21.022118 21.022118 0 0 0 41.140705 0 96.075294 96.075294 0 0 1 74.270118-74.270117 21.022118 21.022118 0 0 0 0-41.140706zM879.435294 552.96a126.253176 126.253176 0 0 1-97.641412-97.641412 20.359529 20.359529 0 0 0-39.996235 0 126.253176 126.253176 0 0 1-97.581176 97.641412 20.359529 20.359529 0 0 0 0 39.936 126.253176 126.253176 0 0 1 97.581176 97.701647 20.419765 20.419765 0 0 0 39.996235 0 126.253176 126.253176 0 0 1 97.581177-97.701647 20.419765 20.419765 0 0 0 0-39.936z" fill="#ffffff" /></svg>