<?xml version="1.0" standalone="no"?><!DOCTYPE svg PUBLIC "-//W3C//DTD SVG 1.1//EN" "http://www.w3.org/Graphics/SVG/1.1/DTD/svg11.dtd"><svg t="1741781798281" class="icon" viewBox="0 0 1024 1024" version="1.1" xmlns="http://www.w3.org/2000/svg" p-id="7646" xmlns:xlink="http://www.w3.org/1999/xlink" width="32" height="32"><path d="M405.333333 384C369.92 384 341.333333 412.586667 341.333333 448 341.333333 483.413333 369.92 512 405.333333 512 440.746667 512 469.333333 483.413333 469.333333 448 469.333333 412.586667 440.746667 384 405.333333 384M618.666667 384C583.253333 384 554.666667 412.586667 554.666667 448 554.666667 483.413333 583.253333 512 618.666667 512 654.08 512 682.666667 483.413333 682.666667 448 682.666667 412.586667 654.08 384 618.666667 384M512 170.666667 541.013333 171.946667C581.12 138.24 632.32 110.506667 670.72 100.266667 750.506667 78.933333 890.88 95.146667 909.226667 163.413333 922.453333 213.333333 878.933333 275.2 811.946667 314.88 864.426667 380.586667 896 463.786667 896 554.666667 896 766.72 724.053333 938.666667 512 938.666667 299.946667 938.666667 128 766.72 128 554.666667 128 463.786667 159.573333 380.586667 212.053333 314.88 145.066667 275.2 101.546667 213.333333 114.773333 163.413333 133.12 95.146667 273.493333 78.933333 353.28 100.266667 391.68 110.506667 442.88 138.24 482.986667 171.946667L512 170.666667M426.666667 682.666667C450.133333 682.666667 469.333333 701.866667 469.333333 725.333333 469.333333 748.8 450.133333 768 426.666667 768 403.2 768 384 748.8 384 725.333333 384 701.866667 403.2 682.666667 426.666667 682.666667M597.333333 682.666667C620.8 682.666667 640 701.866667 640 725.333333 640 748.8 620.8 768 597.333333 768 573.866667 768 554.666667 748.8 554.666667 725.333333 554.666667 701.866667 573.866667 682.666667 597.333333 682.666667M512 554.666667C394.24 554.666667 298.666667 654.506667 298.666667 725.333333 298.666667 796.16 394.24 853.333333 512 853.333333 629.76 853.333333 725.333333 796.16 725.333333 725.333333 725.333333 654.506667 629.76 554.666667 512 554.666667M331.093333 182.613333C311.893333 177.493333 195.84 185.6 195.84 185.6 195.84 185.6 290.133333 260.266667 308.906667 265.386667 328.106667 270.506667 416.853333 274.346667 422.826667 251.733333 429.226667 228.693333 349.866667 187.733333 331.093333 182.613333M692.906667 182.613333C674.133333 187.733333 594.773333 228.693333 601.173333 251.733333 607.146667 274.346667 695.893333 270.506667 715.093333 265.386667 733.866667 260.266667 828.16 185.6 828.16 185.6 828.16 185.6 712.106667 177.493333 692.906667 182.613333Z" p-id="7647"></path></svg>