<?xml version="1.0" standalone="no"?>
<!DOCTYPE svg PUBLIC "-//W3C//DTD SVG 20010904//EN"
 "http://www.w3.org/TR/2001/REC-SVG-20010904/DTD/svg10.dtd">
<svg version="1.0" xmlns="http://www.w3.org/2000/svg"
 width="1024.000000pt" height="1024.000000pt" viewBox="0 0 1024.000000 1024.000000"
 preserveAspectRatio="xMidYMid meet">
<metadata>
Created by potrace 1.16, written by Peter Selinger 2001-2019
</metadata>
<g transform="translate(0.000000,1024.000000) scale(0.100000,-0.100000)"
fill="#000000" stroke="none">
<path d="M3711 8438 c-56 -29 -91 -89 -125 -217 -56 -209 -86 -467 -86 -743
l0 -168 -34 -52 c-121 -190 -226 -494 -226 -654 0 -19 -3 -34 -7 -34 -5 0
-100 16 -213 35 -113 19 -217 35 -232 35 -39 0 -70 -34 -66 -72 5 -54 32 -64
287 -102 128 -19 236 -37 238 -40 9 -9 41 -171 35 -177 -4 -3 -106 -26 -226
-49 -232 -46 -256 -56 -256 -105 0 -27 40 -75 63 -75 7 0 111 20 230 45 120
25 224 45 232 45 8 0 27 -24 41 -52 61 -121 153 -234 258 -317 120 -96 305
-192 434 -225 133 -35 90 -96 -68 -96 -177 0 -393 48 -595 133 -71 30 -155 60
-186 66 -120 25 -239 -35 -285 -144 -21 -50 -21 -138 -1 -188 22 -51 108 -139
181 -186 205 -129 565 -225 881 -233 l90 -3 3 37 c2 26 11 44 29 58 56 44 79
20 98 -100 17 -113 37 -183 76 -266 16 -33 29 -64 29 -67 0 -3 -17 -11 -37
-18 -138 -44 -271 -149 -318 -251 -60 -130 -60 -286 1 -466 l37 -112 -52 -55
c-109 -116 -106 -201 11 -262 46 -23 68 -28 162 -31 227 -9 372 41 425 147 32
62 34 110 11 235 -11 64 -20 140 -18 169 4 70 25 81 129 67 41 -5 122 -10 182
-10 l107 0 0 89 c0 164 52 275 179 383 67 57 131 49 131 -16 0 -8 -31 -46 -69
-84 -95 -97 -126 -162 -125 -267 0 -66 5 -89 26 -131 34 -66 114 -138 214
-193 43 -24 87 -50 97 -59 27 -24 20 -61 -23 -117 -91 -118 -92 -207 -3 -251
31 -15 59 -19 143 -18 169 2 304 56 400 160 97 106 94 170 -20 366 -33 57 -60
109 -60 117 0 7 22 43 49 80 104 140 135 236 134 416 -1 135 -19 231 -65 342
l-29 72 -97 36 c-53 20 -110 42 -125 47 -53 20 -61 89 -12 108 67 26 300 -79
481 -216 124 -95 163 -115 234 -121 73 -7 144 23 201 84 54 59 69 98 69 181 0
59 -5 80 -36 141 -97 193 -374 366 -751 467 -57 15 -103 30 -103 33 0 4 39 26
88 50 48 24 119 64 157 89 86 57 231 195 281 268 21 30 39 54 40 54 1 0 100
-22 219 -50 119 -27 222 -50 229 -50 23 0 56 40 56 68 0 55 -15 62 -229 112
-111 26 -203 49 -205 51 -2 2 4 36 14 74 11 39 19 84 19 102 1 53 9 63 53 63
73 0 383 31 406 40 12 5 27 21 34 34 14 33 -6 84 -37 92 -20 5 -323 -19 -397
-31 l-28 -4 0 87 c0 165 -47 361 -126 530 l-36 77 6 150 c12 296 -21 688 -73
856 -35 113 -100 179 -176 179 -118 0 -356 -169 -637 -452 l-147 -149 -98 22
c-131 28 -445 38 -594 18 -57 -7 -106 -14 -109 -14 -4 0 -32 32 -64 70 -96
115 -315 332 -409 405 -152 119 -238 149 -316 108z m319 -1666 c104 -77 100
-288 -8 -370 -29 -22 -46 -27 -91 -27 -103 0 -161 73 -161 203 0 175 142 281
260 194z m1271 -23 c45 -32 71 -84 76 -152 7 -90 -10 -143 -67 -199 -45 -45
-50 -48 -101 -48 -110 0 -176 88 -167 222 12 161 149 255 259 177z m-677 -352
c54 -36 38 -120 -35 -178 l-39 -30 15 -37 c45 -111 184 -135 275 -47 19 18 42
35 50 36 28 5 61 -13 71 -38 28 -75 -118 -173 -258 -173 -67 0 -133 26 -179
71 l-32 31 -42 -31 c-23 -16 -66 -35 -96 -42 -128 -29 -264 47 -264 149 0 31
28 72 51 72 22 0 49 -22 64 -51 21 -40 72 -64 118 -55 38 7 107 73 107 102 0
9 -14 32 -31 52 -58 65 -75 138 -41 175 15 18 27 19 129 15 80 -4 120 -10 137
-21z"/>
<path d="M7253 5921 c-145 -50 -281 -211 -343 -406 -20 -62 -24 -101 -31 -340
-8 -291 -14 -330 -68 -440 -57 -114 -180 -223 -307 -274 -75 -29 -193 -51
-277 -51 l-73 0 -12 -97 c-6 -54 -22 -130 -35 -170 -19 -59 -21 -73 -9 -78 29
-11 253 -4 338 10 284 49 510 195 662 428 101 155 146 318 162 593 14 247 39
320 157 454 108 123 133 200 94 286 -20 44 -56 74 -110 92 -47 16 -87 14 -148
-7z"/>
<path d="M6705 3954 c-27 -2 -117 -9 -200 -14 -165 -12 -496 -47 -503 -54 -2
-3 12 -33 31 -68 47 -84 77 -176 77 -238 0 -27 3 -50 7 -50 7 0 504 84 1070
181 308 52 324 53 338 9 10 -31 -19 -68 -63 -80 -21 -5 -295 -58 -608 -116
-313 -58 -624 -116 -692 -129 -122 -23 -123 -23 -176 -73 -62 -59 -166 -114
-268 -142 -82 -22 -222 -40 -265 -33 -84 13 -129 29 -169 59 -24 19 -51 34
-60 34 -9 0 -199 -27 -422 -59 -224 -33 -506 -72 -627 -86 -121 -14 -546 -67
-945 -117 -790 -100 -901 -109 -979 -83 -27 9 -55 22 -61 30 -16 19 3 51 34
59 13 3 188 26 388 50 200 25 594 73 876 108 281 34 512 66 512 70 0 4 -8 8
-17 8 -34 0 -138 58 -175 96 -89 93 -90 212 -2 332 17 23 17 23 -7 18 -13 -3
-113 -24 -222 -47 -768 -157 -1424 -385 -1599 -557 -50 -48 -52 -99 -8 -160
127 -175 457 -292 988 -349 218 -23 794 -23 1097 1 898 69 1865 262 2668 530
713 238 1105 506 1037 710 -23 72 -118 115 -310 142 -101 14 -627 27 -745 18z"/>
<path d="M4837 3771 l-169 -26 7 -42 c3 -23 6 -75 6 -116 0 -110 -28 -176
-109 -256 l-65 -64 34 6 c19 3 172 25 340 48 l307 43 6 50 c3 28 21 81 39 119
l33 67 -61 35 c-34 19 -93 63 -131 98 l-69 63 -168 -25z"/>
<path d="M5923 2723 c-38 -8 -63 -20 -63 -27 0 -19 86 -148 158 -238 163 -202
328 -310 526 -344 129 -23 291 7 388 71 46 31 52 31 91 1 189 -142 491 -143
711 -2 112 71 161 148 132 204 -30 57 -75 56 -152 -4 -172 -134 -377 -169
-541 -92 -24 11 -70 44 -103 74 -74 66 -100 69 -161 18 -174 -146 -406 -134
-609 31 -66 53 -150 149 -233 266 -45 65 -46 66 -144 42z"/>
<path d="M4130 2411 c0 -51 -39 -157 -82 -221 -47 -70 -119 -133 -194 -166
-117 -52 -309 -68 -449 -39 -95 20 -112 19 -140 -10 -54 -53 -12 -124 89 -150
193 -49 483 -16 632 71 90 53 203 174 251 269 29 57 50 132 58 209 l7 66 -86
0 -86 0 0 -29z"/>
</g>
</svg>
