<?xml version="1.0" standalone="no"?>
<!DOCTYPE svg PUBLIC "-//W3C//DTD SVG 20010904//EN"
 "http://www.w3.org/TR/2001/REC-SVG-20010904/DTD/svg10.dtd">
<svg version="1.0" xmlns="http://www.w3.org/2000/svg"
 width="580.000000pt" height="580.000000pt" viewBox="0 0 580.000000 580.000000"
 preserveAspectRatio="xMidYMid meet">
<metadata>
Created by potrace 1.16, written by Peter Selinger 2001-2019
</metadata>
<g transform="translate(0.000000,580.000000) scale(0.100000,-0.100000)"
fill="#000000" stroke="none">
<path d="M4425 5697 c-27 -13 -118 -69 -202 -123 -83 -54 -187 -119 -229 -144
-103 -60 -119 -86 -119 -201 l0 -86 -50 -34 c-227 -151 -873 -554 -1430 -892
-231 -140 -250 -160 -250 -255 0 -37 4 -80 8 -97 8 -30 8 -30 -175 -144 -320
-200 -428 -265 -646 -384 -117 -64 -228 -129 -247 -144 -60 -48 -78 -115 -50
-185 7 -19 -7 -31 -182 -143 -59 -38 -166 -111 -237 -162 -71 -51 -133 -93
-138 -93 -6 0 -17 9 -26 20 -22 26 -83 36 -121 20 -68 -28 -80 -97 -33 -192
35 -70 238 -413 294 -496 57 -85 108 -111 168 -85 58 24 70 40 64 87 l-6 41
189 112 c208 123 363 210 401 224 21 8 30 5 56 -20 55 -53 121 -65 198 -34 24
9 140 76 258 148 249 152 297 180 519 304 124 70 166 89 173 79 12 -19 49
-119 54 -148 4 -21 -3 -30 -45 -57 -122 -79 -176 -252 -121 -381 12 -28 28
-57 36 -63 34 -28 42 -13 -456 -859 -508 -864 -637 -1087 -644 -1112 -8 -36
15 -92 48 -114 37 -23 110 -14 141 17 20 21 98 150 325 539 114 195 702 1185
706 1189 2 2 7 1 12 -3 4 -4 9 -388 12 -853 l5 -845 33 -29 c58 -52 149 -33
178 38 12 26 14 184 14 863 0 456 3 830 8 830 4 0 12 -8 18 -17 31 -51 799
-1345 930 -1568 52 -88 93 -146 111 -157 42 -26 96 -23 132 8 43 36 50 82 19
142 -25 49 -304 525 -777 1322 -151 256 -286 486 -300 511 l-25 46 44 87 c72
141 67 244 -16 357 -22 31 -58 62 -90 80 -40 23 -56 39 -64 65 -13 38 -7 55
12 36 20 -20 108 -14 163 12 28 12 134 75 238 139 103 65 269 163 370 219 444
247 726 407 1018 577 25 14 28 13 67 -20 127 -108 239 -104 427 16 250 159
350 231 380 274 30 42 30 44 30 169 -1 106 -5 145 -28 235 -105 406 -350 834
-638 1112 -168 163 -285 232 -408 242 -45 3 -66 -1 -106 -20z m215 -258 c73
-42 257 -230 342 -349 86 -122 177 -281 240 -423 52 -115 122 -315 132 -377
27 -167 23 -189 -49 -236 l-54 -36 -30 21 c-119 85 -382 438 -532 716 -121
222 -178 375 -199 535 -12 90 -3 126 43 158 17 12 36 22 42 22 5 0 35 -14 65
-31z m-1773 -3011 c36 -29 20 -109 -28 -133 -65 -34 -129 -1 -129 67 0 65 104
109 157 66z"/>
</g>
</svg>
